<svg xmlns="http://www.w3.org/2000/svg" width="146" height="172" version="1.1">
  <path fill="#FFA500" fill-rule="evenodd" d="M54,2c-13.233,2.233,-22.961,6.692,-31.655,14.509c-2.733,2.457,-5.846,4.468,-6.918,4.468c-5.197,0,-6.817,8.118,-1.978,9.908c4.295,1.589,7.303,-1.061,6.904,-6.081c-0.171,-2.151,9.187,-10.68,14.819,-13.506l4.342,-2.18l5.078,2.54c6.733,3.368,15.696,10.128,15.412,11.625c-0.542,2.849,1.43,5.705,4.479,6.485c2.402,0.615,3.985,2.144,6.436,6.218c4.274,7.105,4.1,7.992,-0.714,3.642c-27.751,-25.071,-73.255,1.742,-58.294,34.349c10.331,22.515,46.073,19.704,46.236,-3.636c0.012,-1.724,0.662,-4.368,1.443,-5.875c1.811,-3.49,0.7,-6.689,-2.75,-7.921c-5.569,-1.989,-9.151,5.761,-4.171,9.024c3.969,2.601,2.934,9.201,-2.314,14.747c-17.159,18.136,-45.914,-5.82,-35.431,-29.519c8.833,-19.968,37.53,-24.004,54.108,-7.61c7.228,7.148,10.67,16.352,6.977,18.658c-2.243,1.4,-2.451,6.38,-0.34,8.132c0.825,0.685,1.505,2.652,1.512,4.372c0.046,12.139,11.676,32.877,23.84,42.511c2.628,2.081,4.148,4.097,4.148,5.501c0,3.079,1.848,4.616,5.55,4.616c5.242,0,16.651,7.264,12.852,8.183c-1.596,0.386,-5.827,1.445,-9.402,2.353c-3.575,0.909,-7.986,1.887,-9.803,2.174c-4.767,0.752,-7.01,4.401,-4.789,7.79c2.926,4.466,9.592,2.385,9.592,-2.994c0,-2.706,2.668,-3.836,12.807,-5.425c14.485,-2.27,21.484,-13.281,14.682,-23.097c-2.207,-3.184,-2.376,-4.01,-1.398,-6.816c0.612,-1.756,0.869,-3.829,0.571,-4.607c-0.299,-0.778,0.143,-1.985,0.983,-2.681c1.059,-0.879,1.335,-2.201,0.903,-4.323c-1.702,-8.367,-1.805,-7.907,2.433,-10.797c7.291,-4.973,5.698,-7.873,-13.385,-24.369c-3.182,-2.751,-3.596,-3.652,-3.596,-7.833c0,-30.908,-35.873,-58.154,-69.169,-52.535m1.169,2.974c-10.152,1.616,-10.96,2.252,-6.398,5.034c2.144,1.307,6.057,3.972,8.697,5.922c2.982,2.204,5.678,3.431,7.123,3.242c3.094,-0.406,5.769,2.421,5.422,5.728c-0.161,1.532,0.674,3.996,1.971,5.817c4.065,5.709,7.131,13.734,8.333,21.811c0.65,4.372,1.783,8.659,2.517,9.528c1.928,2.279,1.641,5.679,-0.644,7.635c-4.004,3.428,0.724,19.826,8.985,31.162l3.189,4.376l1.955,-2.876c6.9,-10.153,11.467,-22.037,9.362,-24.363c-2.181,-2.41,-1.866,-4.589,0.988,-6.834c5.778,-4.545,1.832,-35.523,-6.684,-52.481c-4.907,-9.77,-27.028,-16.533,-44.816,-13.701m51.342,20.136c0.278,0.897,1.395,4.512,2.482,8.032c2.62,8.482,4.584,24.591,3.857,31.632c-0.448,4.346,-0.22,6.055,0.987,7.388c2.003,2.214,0.98,6.833,-1.667,7.525c-1.29,0.337,-2.583,2.529,-3.994,6.77c-1.823,5.476,-3.737,9.157,-10.063,19.347c-1.783,2.872,7.313,12.441,10.929,11.496c2.883,-0.754,6.127,1.406,6.127,4.079c0,4.261,14.77,12.657,17.253,9.808c4.398,-5.047,4.706,-8.54,1.169,-13.266c-2.14,-2.86,-2.483,-4.164,-2.019,-7.694l0.559,-4.25l-3.981,0c-5.184,0,-5.311,-2.285,-0.212,-3.813c6.715,-2.011,7.576,-3.118,5.776,-7.425c-2.051,-4.909,-2.192,-4.486,3.114,-9.358l4.659,-4.277l-3.329,-3.814c-1.832,-2.097,-6.035,-5.917,-9.342,-8.488c-7.162,-5.568,-8.624,-8.075,-9.681,-16.596c-0.549,-4.431,-2.198,-9.304,-5.272,-15.588c-4.208,-8.598,-8.559,-15.41,-7.352,-11.508m-101.342,9.867c-2.246,2.246,-2.433,3.323,-1.029,5.946c0.662,1.236,0.472,4.164,-0.594,9.184c-3.732,17.567,-0.646,38.586,7.643,52.056c1.639,2.664,2.98,5.93,2.98,7.258c0,2.869,2.413,5.556,4.989,5.556c5.159,0,7.659,24.208,3.685,35.693c-2.315,6.691,-5.108,10.268,-7.524,9.636c-4.152,-1.086,-6.865,5.813,-3.579,9.1c3.121,3.12,8.429,0.518,8.429,-4.132c0,-1.125,1.168,-4.134,2.595,-6.688c5.435,-9.725,7.094,-26.236,3.778,-37.609c-0.882,-3.025,-1.827,-7.3,-2.101,-9.5c-0.607,-4.884,-1.806,-6.5,-4.822,-6.5c-12.424,0,-19.949,-55.592,-8.42,-62.203c3.65,-2.094,4.001,-5.961,0.747,-8.24c-2.937,-2.058,-4.37,-1.964,-6.777,0.443"/>
</svg>
